<svg width="500" height="500" viewBox="0 0 500 500" fill="none" xmlns="http://www.w3.org/2000/svg">
<rect width="500" height="500" rx="100" fill="#0164FF"/>
<mask id="mask0_9_408" style="mask-type:luminance" maskUnits="userSpaceOnUse" x="100" y="100" width="300" height="300">
<path d="M100 100H400V400H100V100Z" fill="white"/>
</mask>
<g mask="url(#mask0_9_408)">
<path d="M377.088 199.514L369.879 194.196L332.813 166.82L305.41 129.74L300.092 122.545L283.443 100H216.19L199.527 122.545L194.21 129.74L166.82 166.82L129.74 194.196L122.545 199.54L100 216.19V283.43L122.545 300.105L129.74 305.423L166.82 332.799L194.21 369.879L199.554 377.075L216.19 399.632H283.456L300.118 377.075L305.436 369.879L332.826 332.799L369.905 305.423L377.101 300.079L399.659 283.43V216.176L377.101 199.514H377.088ZM374.133 254.937C372.925 256.132 372.256 256.815 371.048 258.009H335.938L291.203 290.743V291.203H290.73L258.009 335.964V371.048L254.924 374.133H244.682C243.474 372.925 242.805 372.256 241.61 371.048V335.938L208.889 291.203H208.43V290.73L163.669 258.009H128.558C127.35 256.801 126.694 256.132 125.486 254.924V244.695C126.694 243.487 127.363 242.818 128.558 241.61H163.682L208.43 208.876V208.416H208.889L241.61 163.655V128.571C242.818 127.363 243.487 126.694 244.682 125.486H254.924C256.132 126.694 256.801 127.363 258.009 128.571V163.682L290.73 208.43H291.203V208.889L335.951 241.61H371.048L374.133 244.695V254.937Z" fill="white"/>
</g>
</svg>
