<svg width="6000" height="1764" viewBox="0 0 6000 1764" fill="none" xmlns="http://www.w3.org/2000/svg">
<mask id="mask0_12_102" style="mask-type:luminance" maskUnits="userSpaceOnUse" x="0" y="0" width="1764" height="1764">
<path d="M0 0H1763.03V1763.03H0V0Z" fill="white"/>
</mask>
<g mask="url(#mask0_12_102)">
<path d="M1628.38 584.82L1586.01 553.569L1368.18 392.684L1207.14 174.775L1175.89 132.489L1078.05 0H682.818L584.898 132.489L553.647 174.775L392.684 392.684L174.775 553.569L132.489 584.975L0 682.818V1077.97L132.489 1175.97L174.775 1207.22L392.684 1368.1L553.647 1586.01L585.052 1628.3L682.818 1760.87H1078.13L1176.05 1628.3L1207.3 1586.01L1368.26 1368.1L1586.17 1207.22L1628.45 1175.81L1761.02 1077.97V682.741L1628.45 584.82H1628.38ZM1611.01 910.527C1603.92 917.549 1599.98 921.561 1592.88 928.583H1386.55L1123.65 1120.95V1123.65H1120.87L928.583 1386.7V1592.88L910.45 1611.01H850.262C843.163 1603.92 839.228 1599.98 832.206 1592.88V1386.55L639.915 1123.65H637.214V1120.87L374.165 928.583H167.83C160.731 921.484 156.873 917.549 149.774 910.45V850.339C156.873 843.24 160.808 839.305 167.83 832.206H374.242L637.214 639.838V637.137H639.915L832.206 374.088V167.907C839.305 160.808 843.24 156.873 850.262 149.774H910.45C917.549 156.873 921.484 160.808 928.583 167.907V374.242L1120.87 637.214H1123.65V639.915L1386.62 832.206H1592.88L1611.01 850.339V910.527Z" fill="white"/>
</g>
<path d="M2470.94 523.445H2578.04V1053.4H2465.07L2453.34 1006.18C2430.5 1025.93 2404.42 1041.36 2375.25 1052.48C2346.24 1063.59 2315.07 1069.14 2281.73 1069.14C2228.64 1069.14 2181.19 1056.87 2139.44 1032.41C2097.62 1007.72 2064.59 974.31 2040.37 932.101C2016.06 889.97 2003.94 841.974 2003.94 788.269C2003.94 735.412 2016.06 687.879 2040.37 645.671C2064.59 603.54 2097.62 570.36 2139.44 546.285C2181.19 522.056 2228.64 509.864 2281.73 509.864C2315.68 509.864 2347.32 515.651 2376.8 527.148C2406.2 538.491 2432.43 554.233 2455.5 574.372L2470.94 523.445ZM2293.46 933.644C2321.01 933.644 2345.7 927.471 2367.54 915.125C2389.53 902.625 2406.74 885.417 2419.08 863.58C2431.43 841.589 2437.6 816.511 2437.6 788.269C2437.6 760.953 2431.43 736.338 2419.08 714.501C2406.74 692.509 2389.53 675.148 2367.54 662.338C2345.7 649.606 2321.01 643.202 2293.46 643.202C2265.22 643.202 2240.37 649.606 2218.77 662.338C2197.32 675.148 2180.34 692.509 2167.84 714.501C2155.49 736.338 2149.32 760.953 2149.32 788.269C2149.32 816.511 2155.49 841.357 2167.84 862.963C2180.34 884.569 2197.32 901.776 2218.77 914.508C2240.37 927.317 2265.22 933.644 2293.46 933.644Z" fill="white"/>
<path d="M2854.66 1069.14C2810.21 1069.14 2771.17 1061.27 2737.68 1045.69C2704.35 1029.87 2678.27 1007.72 2659.59 979.325C2641.07 950.929 2631.81 917.749 2631.81 879.63H2771.32C2771.94 903.319 2780.35 920.99 2796.63 932.719C2813.07 944.447 2834.06 950.312 2859.6 950.312C2879.74 950.312 2897.33 945.913 2912.38 937.04C2927.58 928.243 2935.22 914.971 2935.22 897.223C2935.22 878.936 2925.19 866.049 2905.28 858.642C2885.29 851.08 2861.22 844.984 2833.06 840.431C2812.07 837.19 2790.23 832.638 2767.62 826.85C2745.17 820.909 2724.41 812.344 2705.27 801.232C2686.29 790.121 2670.78 774.842 2658.67 755.243C2646.71 735.489 2640.76 709.871 2640.76 678.388C2640.76 645.054 2649.72 615.655 2667.62 590.114C2685.67 564.65 2710.6 544.896 2742.31 530.852C2773.95 516.886 2811.45 509.864 2854.66 509.864C2897.26 509.864 2934.37 517.271 2966.08 532.087C2997.72 546.748 3022.41 567.273 3040.16 593.817C3057.83 620.207 3066.71 651.073 3066.71 686.413H2930.28C2930.28 665.425 2923.18 649.684 2908.98 639.189C2894.94 628.695 2875.5 623.448 2850.65 623.448C2828.43 623.448 2810.99 628.309 2798.49 637.955C2786.14 647.446 2779.97 659.715 2779.97 674.685C2779.97 692.432 2789.69 704.547 2809.29 711.106C2829.04 717.51 2852.65 722.989 2880.28 727.464C2901.65 731.4 2923.8 736.261 2946.64 741.971C2969.63 747.527 2990.93 755.86 3010.53 766.972C3030.28 778.083 3046.1 793.439 3058.06 812.961C3070.18 832.561 3076.27 858.333 3076.27 890.433C3076.27 926.468 3067.09 957.951 3048.8 984.881C3030.44 1011.66 3004.67 1032.41 2971.33 1047.23C2938 1061.81 2899.11 1069.14 2854.66 1069.14Z" fill="white"/>
<path d="M3618.82 1054.33H3445.36L3275.6 801.232V1054.33H3132.38V333.005H3275.6V759.873L3434.55 524.37H3599.37L3420.66 776.54L3618.82 1054.33Z" fill="white"/>
<path d="M4078.07 926.853H4142.88V1054.33H4041.65C3983.39 1054.33 3937.4 1037.58 3903.68 1004.02C3870.11 970.295 3853.37 923.92 3853.37 864.813V639.188H3757.07V608.94L3967.26 386.092H3993.5V524.369H4139.8V639.188H3996.58V846.294C3996.58 871.835 4003.53 891.666 4017.57 905.864C4031.77 919.908 4051.91 926.853 4078.07 926.853Z" fill="white"/>
<path d="M4807.05 524.372H4949.34L4775.57 1054.33H4660.75L4540.07 780.554L4422.47 1054.33H4307.65L4132.03 524.372H4278.02L4382.04 840.432L4520.31 528.384H4560.75L4703.04 841.358L4807.05 524.372Z" fill="white"/>
<path d="M4978.7 453.688V320.35H5121.92V453.688H4978.7ZM4978.7 1054.33V524.369H5121.92V1054.33H4978.7Z" fill="white"/>
<path d="M5398.51 1069.14C5354.06 1069.14 5315.02 1061.27 5281.53 1045.69C5248.19 1029.87 5222.11 1007.72 5203.44 979.325C5184.92 950.929 5175.66 917.749 5175.66 879.63H5315.17C5315.79 903.319 5324.2 920.99 5340.48 932.719C5356.92 944.447 5377.9 950.312 5403.45 950.312C5423.58 950.312 5441.18 945.913 5456.22 937.04C5471.43 928.243 5479.07 914.971 5479.07 897.223C5479.07 878.936 5469.03 866.049 5449.13 858.642C5429.14 851.08 5405.07 844.984 5376.9 840.431C5355.91 837.19 5334.08 832.638 5311.47 826.85C5289.01 820.909 5268.26 812.344 5249.12 801.232C5230.14 790.121 5214.63 774.842 5202.51 755.243C5190.55 735.489 5184.61 709.871 5184.61 678.388C5184.61 645.054 5193.56 615.655 5211.46 590.114C5229.52 564.65 5254.44 544.896 5286.16 530.852C5317.79 516.886 5355.3 509.864 5398.51 509.864C5441.1 509.864 5478.22 517.271 5509.93 532.087C5541.57 546.748 5566.26 567.273 5584.01 593.817C5601.68 620.207 5610.55 651.073 5610.55 686.413H5474.13C5474.13 665.425 5467.03 649.684 5452.83 639.189C5438.79 628.695 5419.34 623.448 5394.49 623.448C5372.27 623.448 5354.83 628.309 5342.33 637.955C5329.99 647.446 5323.81 659.715 5323.81 674.685C5323.81 692.432 5333.54 704.547 5353.13 711.106C5372.89 717.51 5396.5 722.989 5424.12 727.464C5445.5 731.4 5467.65 736.261 5490.49 741.971C5513.48 747.527 5534.78 755.86 5554.38 766.972C5574.13 778.083 5589.95 793.439 5601.91 812.961C5614.02 832.561 5620.12 858.333 5620.12 890.433C5620.12 926.468 5610.94 957.951 5592.65 984.881C5574.28 1011.66 5548.51 1032.41 5515.18 1047.23C5481.84 1061.81 5442.95 1069.14 5398.51 1069.14Z" fill="white"/>
<path d="M5935.18 926.853H6000V1054.33H5898.76C5840.5 1054.33 5794.51 1037.58 5760.79 1004.02C5727.23 970.295 5710.48 923.92 5710.48 864.813V639.188H5614.18V608.94L5824.38 386.092H5850.61V524.369H5996.91V639.188H5853.7V846.294C5853.7 871.835 5860.64 891.666 5874.69 905.864C5888.89 919.908 5909.02 926.853 5935.18 926.853Z" fill="white"/>
<path d="M2052.71 1504.74C2033.73 1504.74 2018.91 1499.34 2008.26 1488.38C1997.54 1477.5 1992.21 1461.68 1992.21 1440.85V1356.59H2007.96V1440.23C2007.96 1457.36 2011.74 1470.1 2019.38 1478.51C2027.17 1486.76 2038.28 1490.85 2052.71 1490.85C2067.53 1490.85 2078.71 1486.76 2086.35 1478.51C2093.92 1470.1 2097.77 1457.36 2097.77 1440.23V1356.59H2112.9V1440.85C2112.9 1461.68 2107.65 1477.5 2097.16 1488.38C2086.66 1499.34 2071.85 1504.74 2052.71 1504.74Z" fill="white"/>
<path d="M2298.35 1356.59V1503.51H2285.69L2191.25 1384.37V1503.51H2175.81V1356.59H2188.47L2283.23 1475.73V1356.59H2298.35Z" fill="white"/>
<path d="M2362.27 1356.59H2377.71V1489.93H2459.81V1503.51H2362.27V1356.59Z" fill="white"/>
<path d="M2565.95 1504.74C2551.29 1504.74 2538.02 1501.58 2526.13 1495.17C2514.4 1488.62 2505.14 1479.67 2498.35 1468.32C2491.72 1457.06 2488.48 1444.25 2488.48 1430.05C2488.48 1415.85 2491.72 1403.12 2498.35 1391.78C2505.14 1380.51 2514.4 1371.64 2526.13 1365.23C2538.02 1358.67 2551.29 1355.35 2565.95 1355.35C2580.3 1355.35 2593.42 1358.6 2605.15 1364.92C2616.88 1371.33 2625.98 1380.28 2632.62 1391.78C2639.41 1403.12 2642.8 1415.85 2642.8 1430.05C2642.8 1444.25 2639.41 1457.13 2632.62 1468.63C2625.98 1479.97 2616.88 1488.85 2605.15 1495.17C2593.42 1501.58 2580.3 1504.74 2565.95 1504.74ZM2565.95 1490.85C2577.45 1490.85 2587.86 1488.31 2597.12 1483.14C2606.54 1477.81 2613.95 1470.48 2619.35 1461.22C2624.67 1451.96 2627.37 1441.62 2627.37 1430.05C2627.37 1418.55 2624.67 1408.13 2619.35 1398.88C2613.95 1389.62 2606.54 1382.44 2597.12 1377.27C2587.86 1371.95 2577.45 1369.24 2565.95 1369.24C2554.22 1369.24 2543.57 1371.95 2534.16 1377.27C2524.67 1382.44 2517.26 1389.62 2511.94 1398.88C2506.53 1408.13 2503.91 1418.55 2503.91 1430.05C2503.91 1441.62 2506.53 1451.96 2511.94 1461.22C2517.26 1470.48 2524.67 1477.81 2534.16 1483.14C2543.57 1488.31 2554.22 1490.85 2565.95 1490.85Z" fill="white"/>
<path d="M2757.24 1504.74C2742.82 1504.74 2729.77 1501.58 2718.05 1495.17C2706.32 1488.85 2697.06 1479.97 2690.27 1468.63C2683.63 1457.13 2680.39 1444.25 2680.39 1430.05C2680.39 1415.85 2683.63 1403.12 2690.27 1391.78C2697.06 1380.28 2706.32 1371.33 2718.05 1364.92C2729.77 1358.6 2742.89 1355.35 2757.55 1355.35C2768.43 1355.35 2778.54 1357.21 2787.8 1360.91C2797.06 1364.46 2804.85 1369.71 2811.26 1376.65L2801.38 1386.53C2789.81 1375.03 2775.3 1369.24 2757.86 1369.24C2746.29 1369.24 2735.72 1371.95 2726.07 1377.27C2716.58 1382.44 2709.17 1389.62 2703.85 1398.88C2698.45 1408.13 2695.82 1418.55 2695.82 1430.05C2695.82 1441.62 2698.45 1451.96 2703.85 1461.22C2709.17 1470.48 2716.58 1477.81 2726.07 1483.14C2735.72 1488.31 2746.29 1490.85 2757.86 1490.85C2775.53 1490.85 2790.04 1484.99 2801.38 1473.26L2811.26 1483.14C2804.85 1490.16 2796.91 1495.48 2787.49 1499.19C2778.23 1502.89 2768.12 1504.74 2757.24 1504.74Z" fill="white"/>
<path d="M2905.77 1434.37L2875.83 1464.93V1503.51H2860.4V1356.59H2875.83V1445.48L2961.95 1356.59H2979.85L2916.27 1423.26L2984.17 1503.51H2965.96L2905.77 1434.37Z" fill="white"/>
<path d="M3025.47 1356.59H3040.9V1503.51H3025.47V1356.59Z" fill="white"/>
<path d="M3227.29 1356.59V1503.51H3214.63L3120.19 1384.37V1503.51H3104.75V1356.59H3117.41L3212.17 1475.73V1356.59H3227.29Z" fill="white"/>
<path d="M3394.61 1430.05H3409.42V1486.22C3402.63 1492.24 3394.45 1496.87 3385.04 1500.11C3375.78 1503.2 3365.9 1504.74 3355.41 1504.74C3340.75 1504.74 3327.63 1501.58 3315.9 1495.17C3304.17 1488.85 3294.91 1479.97 3288.12 1468.63C3281.33 1457.13 3277.94 1444.25 3277.94 1430.05C3277.94 1415.85 3281.33 1403.12 3288.12 1391.78C3294.91 1380.28 3304.17 1371.33 3315.9 1364.92C3327.63 1358.6 3340.9 1355.35 3355.72 1355.35C3366.83 1355.35 3377.02 1357.21 3386.27 1360.91C3395.69 1364.46 3403.71 1369.71 3410.35 1376.65L3400.47 1386.53C3388.9 1375.03 3374.24 1369.24 3356.34 1369.24C3344.38 1369.24 3333.57 1371.95 3323.93 1377.27C3314.44 1382.44 3306.95 1389.62 3301.4 1398.88C3295.99 1408.13 3293.37 1418.55 3293.37 1430.05C3293.37 1441.62 3295.99 1451.96 3301.4 1461.22C3306.95 1470.48 3314.44 1477.81 3323.93 1483.14C3333.57 1488.31 3344.3 1490.85 3356.03 1490.85C3371.23 1490.85 3384.11 1487.07 3394.61 1479.43V1430.05Z" fill="white"/>
<path d="M3568.58 1370.17H3517.03V1356.59H3635.86V1370.17H3584.01V1503.51H3568.58V1370.17Z" fill="white"/>
<path d="M3799.04 1356.59V1503.51H3783.92V1435.6H3691.94V1503.51H3676.51V1356.59H3691.94V1422.02H3783.92V1356.59H3799.04Z" fill="white"/>
<path d="M3966.67 1489.93V1503.51H3862.97V1356.59H3963.59V1370.17H3878.4V1422.33H3954.33V1435.6H3878.4V1489.93H3966.67Z" fill="white"/>
<path d="M4145.06 1356.59C4163.73 1356.59 4178.39 1361.14 4188.89 1370.17C4199.54 1379.04 4204.94 1391.31 4204.94 1406.9C4204.94 1422.56 4199.54 1434.91 4188.89 1443.94C4178.39 1452.81 4163.73 1457.21 4145.06 1457.21H4105.55V1503.51H4090.12V1356.59H4145.06ZM4144.44 1443.63C4159.03 1443.63 4170.14 1440.46 4177.78 1434.06C4185.57 1427.73 4189.51 1418.63 4189.51 1406.9C4189.51 1395.02 4185.57 1385.91 4177.78 1379.74C4170.14 1373.41 4159.03 1370.17 4144.44 1370.17H4105.55V1443.63H4144.44Z" fill="white"/>
<path d="M4320.85 1504.74C4306.19 1504.74 4292.92 1501.58 4281.04 1495.17C4269.31 1488.62 4260.05 1479.67 4253.26 1468.32C4246.62 1457.06 4243.38 1444.25 4243.38 1430.05C4243.38 1415.85 4246.62 1403.12 4253.26 1391.78C4260.05 1380.51 4269.31 1371.64 4281.04 1365.23C4292.92 1358.67 4306.19 1355.35 4320.85 1355.35C4335.21 1355.35 4348.32 1358.6 4360.05 1364.92C4371.78 1371.33 4380.89 1380.28 4387.52 1391.78C4394.31 1403.12 4397.71 1415.85 4397.71 1430.05C4397.71 1444.25 4394.31 1457.13 4387.52 1468.63C4380.89 1479.97 4371.78 1488.85 4360.05 1495.17C4348.32 1501.58 4335.21 1504.74 4320.85 1504.74ZM4320.85 1490.85C4332.35 1490.85 4342.77 1488.31 4352.03 1483.14C4361.44 1477.81 4368.85 1470.48 4374.25 1461.22C4379.57 1451.96 4382.27 1441.62 4382.27 1430.05C4382.27 1418.55 4379.57 1408.13 4374.25 1398.88C4368.85 1389.62 4361.44 1382.44 4352.03 1377.27C4342.77 1371.95 4332.35 1369.24 4320.85 1369.24C4309.12 1369.24 4298.48 1371.95 4289.06 1377.27C4279.57 1382.44 4272.16 1389.62 4266.84 1398.88C4261.44 1408.13 4258.81 1418.55 4258.81 1430.05C4258.81 1441.62 4261.44 1451.96 4266.84 1461.22C4272.16 1470.48 4279.57 1477.81 4289.06 1483.14C4298.48 1488.31 4309.12 1490.85 4320.85 1490.85Z" fill="white"/>
<path d="M4650.11 1356.59L4600.73 1503.51H4584.06L4541.16 1378.19L4497.95 1503.51H4481.9L4432.2 1356.59H4448.25L4490.54 1482.83L4534.37 1356.59H4548.87L4592.09 1483.44L4635.3 1356.59H4650.11Z" fill="white"/>
<path d="M4801.23 1489.93V1503.51H4697.52V1356.59H4798.14V1370.17H4712.95V1422.33H4788.88V1435.6H4712.95V1489.93H4801.23Z" fill="white"/>
<path d="M4954.09 1503.51L4920.45 1456.28C4916.51 1456.75 4912.58 1456.9 4908.72 1456.9H4869.21V1503.51H4853.78V1356.59H4908.72C4927.39 1356.59 4942.05 1361.14 4952.55 1370.17C4963.2 1379.04 4968.6 1391.31 4968.6 1406.9C4968.6 1418.47 4965.67 1428.2 4959.96 1436.22C4954.17 1444.09 4945.84 1449.72 4934.96 1453.2L4971.07 1503.51H4954.09ZM4908.1 1443.63C4922.69 1443.63 4933.8 1440.46 4941.44 1434.06C4949.23 1427.73 4953.17 1418.63 4953.17 1406.9C4953.17 1395.02 4949.23 1385.91 4941.44 1379.74C4933.8 1373.41 4922.69 1370.17 4908.1 1370.17H4869.21V1443.63H4908.1Z" fill="white"/>
<path d="M5156.46 1504.74C5141.8 1504.74 5128.53 1501.58 5116.64 1495.17C5104.91 1488.62 5095.65 1479.67 5088.86 1468.32C5082.23 1457.06 5078.99 1444.25 5078.99 1430.05C5078.99 1415.85 5082.23 1403.12 5088.86 1391.78C5095.65 1380.51 5104.91 1371.64 5116.64 1365.23C5128.53 1358.67 5141.8 1355.35 5156.46 1355.35C5170.81 1355.35 5183.93 1358.6 5195.66 1364.92C5207.39 1371.33 5216.49 1380.28 5223.13 1391.78C5229.92 1403.12 5233.31 1415.85 5233.31 1430.05C5233.31 1444.25 5229.92 1457.13 5223.13 1468.63C5216.49 1479.97 5207.39 1488.85 5195.66 1495.17C5183.93 1501.58 5170.81 1504.74 5156.46 1504.74ZM5156.46 1490.85C5167.96 1490.85 5178.37 1488.31 5187.63 1483.14C5197.05 1477.81 5204.45 1470.48 5209.86 1461.22C5215.18 1451.96 5217.88 1441.62 5217.88 1430.05C5217.88 1418.55 5215.18 1408.13 5209.86 1398.88C5204.45 1389.62 5197.05 1382.44 5187.63 1377.27C5178.37 1371.95 5167.96 1369.24 5156.46 1369.24C5144.73 1369.24 5134.08 1371.95 5124.67 1377.27C5115.18 1382.44 5107.77 1389.62 5102.44 1398.88C5097.04 1408.13 5094.42 1418.55 5094.42 1430.05C5094.42 1441.62 5097.04 1451.96 5102.44 1461.22C5107.77 1470.48 5115.18 1477.81 5124.67 1483.14C5134.08 1488.31 5144.73 1490.85 5156.46 1490.85Z" fill="white"/>
<path d="M5299.6 1370.17V1427.89H5375.53V1441.16H5299.6V1503.51H5284.17V1356.59H5384.79V1370.17H5299.6Z" fill="white"/>
<path d="M5595.75 1464.31H5513.96L5496.37 1503.51H5480.01L5547.29 1356.59H5562.73L5629.7 1503.51H5613.34L5595.75 1464.31ZM5590.2 1451.65L5554.7 1372.64L5519.51 1451.65H5590.2Z" fill="white"/>
<path d="M5670.1 1356.59H5685.53V1503.51H5670.1V1356.59Z" fill="white"/>
</svg>
